<svg width="199" height="60" viewBox="0 0 199 60" fill="none" xmlns="http://www.w3.org/2000/svg">
<path d="M8.1715 59.0387C7.84087 59.0411 7.51048 59.02 7.1828 58.9756C5.2188 58.7144 2.52558 57.5796 0.843438 53.6751C-0.342116 50.919 -0.27501 47.4784 1.02686 44.218C3.51429 38.0168 9.97444 31.7976 16.7522 29.1L17.3159 28.8658C13.4953 27.2176 8.92758 24.7903 6.64147 20.6651C6.12655 19.7984 5.78644 18.838 5.64059 17.8389C5.49473 16.8397 5.546 15.8214 5.79145 14.8422C6.68621 11.6898 10.0952 9.49218 13.7324 9.74437C16.4167 9.93352 19.101 11.2845 21.6734 13.7569C24.0266 16.0086 25.8519 18.481 27.7891 21.084C28.4601 21.9846 29.1536 22.9213 29.8918 23.8761L27.2522 25.9386C26.514 24.9614 25.7938 24.0202 25.1137 23.1195C23.1811 20.521 21.5347 18.2783 19.3649 16.2068C17.3741 14.2883 15.4011 13.2525 13.4998 13.1174C11.7326 12.9913 9.51364 13.9776 9.026 15.7789C8.78336 16.898 8.98057 18.0681 9.57627 19.0439C11.4329 22.3944 15.5667 24.484 18.9712 25.9341C19.7228 26.2133 21.9195 27.2131 21.7539 29.1541C21.5929 30.6807 20.0315 31.4238 18.0138 32.2344C12.1219 34.5852 6.29699 40.1559 4.14509 45.4834C3.17428 47.9063 3.09823 50.4056 3.93035 52.3376C4.79379 54.3416 6.00619 55.4224 7.6436 55.6431C10.7484 56.0574 15.003 53.2923 17.3159 50.3786C19.4768 47.6766 21.1321 44.3621 22.7382 41.1782C23.1855 40.2775 23.6598 39.3408 24.1295 38.4446C26.7198 33.4908 29.0015 28.8343 31.1042 24.2093C35.2782 15.0359 41.5997 7.50168 48.9054 3.00277C51.5494 1.37254 55.6652 -0.455845 60.2464 0.102577C62.877 0.422319 65.0468 1.53916 66.3487 3.25496C67.9055 5.29951 68.2724 8.24924 67.324 11.1449C64.8813 18.6161 57.759 25.164 50.8917 30.6492C53.2809 32.1816 55.4797 33.9958 57.4413 36.0533C60.3583 39.2057 61.5035 44.4251 58.0453 48.3116C55.6071 51.0496 51.1601 52.3196 46.7132 48.9826C44.7596 47.4877 42.9339 45.8306 41.2552 44.0288L41.1433 43.9027L31.9631 33.1711L34.4953 30.9734L43.6889 41.7141V41.6915C45.2395 43.3645 46.9276 44.9026 48.7354 46.2895C51.6746 48.4962 54.2605 47.5505 55.5803 46.0689C57.1327 44.3215 57.6203 41.1646 55.021 38.3545C53.0095 36.2645 50.7355 34.4477 48.2567 32.9504C47.889 32.7425 47.5789 32.4451 47.3548 32.0854C47.1308 31.7257 46.9999 31.3152 46.974 30.8915C46.9482 30.4677 47.0284 30.0442 47.2071 29.6597C47.3858 29.2751 47.6575 28.9418 47.9972 28.6902C54.7079 23.3807 61.9062 17.0219 64.1699 10.1046C64.6173 8.68157 64.756 6.67755 63.7225 5.30852C62.6891 3.93948 60.8772 3.5747 59.8751 3.45311C56.2424 3.00277 52.8691 4.52943 50.677 5.88045C43.935 10.0371 38.0698 17.0444 34.1732 25.6189C32.0392 30.3024 29.7307 35.013 27.1135 40.0298C26.6661 40.9305 26.2188 41.8086 25.7445 42.7318C24.0669 46.0689 22.331 49.523 19.9555 52.5132C16.2601 57.0887 11.5 59.0387 8.1715 59.0387Z" fill="url(#paint0_linear_4_116)"/>
<path d="M129.094 18.4224L124.857 29.9466C124.553 30.7752 124.079 30.7707 123.783 29.9466L119.493 18.4314H114.572L120.965 34.3779C121.236 35.036 121.695 35.5983 122.283 35.994C122.872 36.3897 123.563 36.6008 124.271 36.6008C124.979 36.6008 125.67 36.3897 126.259 35.994C126.847 35.5983 127.306 35.036 127.577 34.3779L133.885 18.4224H129.094Z" fill="black"/>
<path d="M106.496 17.8235C105.393 17.8217 104.301 18.039 103.281 18.4628C102.261 18.8866 101.335 19.5087 100.555 20.2935C99.7741 21.0782 99.1551 22.0102 98.733 23.036C98.3109 24.0619 98.0939 25.1615 98.0945 26.2719V36.6297H102.649V26.2719C102.649 26.2719 102.649 26.2404 102.649 26.2269C102.652 25.7194 102.754 25.2176 102.95 24.7499C103.145 24.2822 103.43 23.858 103.789 23.5012C104.147 23.1445 104.572 22.8624 105.039 22.671C105.506 22.4795 106.006 22.3825 106.51 22.3854C107.014 22.3884 107.512 22.4913 107.977 22.6882C108.442 22.8851 108.863 23.1722 109.217 23.5331C109.572 23.894 109.852 24.3216 110.042 24.7915C110.232 25.2614 110.329 25.7645 110.326 26.2719V36.6297H114.885V26.2719C114.885 25.1626 114.667 24.0643 114.246 23.0395C113.824 22.0148 113.206 21.0837 112.426 20.2996C111.647 19.5154 110.721 18.8935 109.703 18.4695C108.685 18.0454 107.594 17.8274 106.492 17.828" fill="black"/>
<path d="M91.6883 28.1679C91.6883 29.1927 91.2839 30.1755 90.564 30.9001C89.8442 31.6247 88.8678 32.0318 87.8498 32.0318C86.8317 32.0318 85.8554 31.6247 85.1355 30.9001C84.4157 30.1755 84.0113 29.1927 84.0113 28.1679V17.8101H79.4614V28.1679C79.512 30.3742 80.4183 32.473 81.9863 34.0153C83.5543 35.5577 85.6597 36.4212 87.852 36.4212C90.0444 36.4212 92.1497 35.5577 93.7177 34.0153C95.2858 32.473 96.192 30.3742 96.2426 28.1679V17.8101H91.6883V28.1679Z" fill="black"/>
<path d="M169.908 19.8411C169.133 19.0239 168.187 18.3901 167.139 17.9857C166.027 17.5617 164.847 17.3494 163.658 17.3598C162.363 17.3484 161.079 17.5869 159.873 18.0623C158.742 18.5079 157.71 19.177 156.84 20.0303C155.972 20.9083 155.287 21.9527 154.827 23.1016C154.325 24.3737 154.076 25.7322 154.093 27.1006C154.071 28.4695 154.321 29.829 154.827 31.0997C155.284 32.2267 155.979 33.2407 156.862 34.0719C157.751 34.8975 158.794 35.536 159.931 35.9498C161.173 36.4023 162.485 36.6265 163.806 36.6118C166.365 36.6516 168.847 35.73 170.767 34.0269L168.302 31.0907C167.785 31.539 167.226 31.9356 166.633 32.275C165.744 32.7159 164.761 32.9308 163.77 32.901C163.127 32.9014 162.489 32.7855 161.886 32.5588C161.305 32.3379 160.763 32.0247 160.28 31.6311C159.809 31.2446 159.42 30.7668 159.135 30.226C158.839 29.669 158.665 29.0548 158.625 28.4246C158.526 27.3401 158.526 26.2487 158.625 25.1642C158.662 24.5601 158.819 23.9696 159.087 23.4279C159.355 22.8863 159.729 22.4047 160.186 22.0118C161.144 21.1865 162.371 20.7484 163.631 20.7824C164.283 20.7656 164.931 20.8884 165.533 21.1426C166.046 21.3594 166.504 21.6886 166.875 22.1064C167.228 22.5146 167.492 22.9934 167.649 23.5114C167.812 24.0516 167.893 24.6132 167.89 25.1777H160.16V28.4381H172.36C172.383 28.2363 172.395 28.0333 172.395 27.8302V27.2132C172.424 25.7522 172.201 24.2973 171.738 22.9125C171.347 21.7724 170.726 20.7264 169.912 19.8411" fill="black"/>
<path d="M197.645 28.7714C197.405 28.2007 197.056 27.6834 196.616 27.2493C196.203 26.8502 195.729 26.5202 195.212 26.272C194.732 26.0383 194.234 25.8454 193.722 25.6956C193.189 25.5517 192.648 25.4389 192.102 25.3578C190.702 25.1552 187.982 25.0246 187.982 23.8582C187.982 22.6918 189.892 22.8314 190.067 22.8134H197.068V18.4226H190.554C189.708 18.4177 188.863 18.4931 188.031 18.6478C187.239 18.8111 186.478 19.1048 185.781 19.5169C185.057 19.935 184.443 20.5219 183.991 21.2282C183.5 22.0603 183.254 23.0166 183.284 23.9843C183.267 24.6322 183.387 25.2764 183.634 25.8748C183.882 26.4731 184.252 27.0121 184.721 27.4564C185.139 27.8535 185.612 28.1873 186.125 28.4472C186.609 28.6892 187.112 28.8896 187.629 29.0461C188.1 29.19 188.58 29.3058 189.065 29.3929C189.512 29.4785 189.888 29.546 190.223 29.6046C190.706 29.6901 193.355 29.7712 193.355 30.897C193.355 32.2165 191.436 32.248 190.97 32.248H183.723V36.6299H190.563C191.634 36.6601 192.703 36.548 193.744 36.2966C194.545 36.0906 195.303 35.7413 195.981 35.2653C196.629 34.8006 197.153 34.1818 197.507 33.464C197.874 32.6756 198.056 31.8127 198.039 30.9421C198.054 30.208 197.92 29.4786 197.645 28.7984" fill="black"/>
<path d="M149.687 19.8411C148.912 19.0251 147.968 18.3915 146.922 17.9857C145.809 17.5616 144.627 17.3494 143.437 17.3598C142.142 17.3484 140.858 17.5869 139.652 18.0623C138.509 18.5065 137.47 19.1857 136.602 20.0564C135.734 20.9271 135.056 21.9704 134.61 23.1196C134.112 24.3861 133.866 25.7387 133.885 27.1006C133.861 28.4697 134.111 29.8296 134.619 31.0997C135.075 32.2265 135.768 33.2405 136.65 34.0719C137.534 34.8945 138.571 35.5327 139.701 35.9498C140.945 36.402 142.258 36.6262 143.58 36.6118C146.138 36.6535 148.619 35.7316 150.537 34.0269L148.076 31.0907C147.561 31.5387 147.004 31.9354 146.412 32.2751C145.523 32.7162 144.54 32.9312 143.549 32.901C142.907 32.9009 142.271 32.785 141.67 32.5588C141.083 32.3409 140.536 32.0275 140.05 31.6311C139.578 31.2448 139.187 30.767 138.901 30.226C138.609 29.6678 138.436 29.0541 138.395 28.4246C138.296 27.3401 138.296 26.2487 138.395 25.1642C138.431 24.5601 138.588 23.9696 138.857 23.4279C139.125 22.8863 139.499 22.4047 139.956 22.0118C140.913 21.1858 142.141 20.7475 143.401 20.7824C144.053 20.7661 144.701 20.8888 145.303 21.1426C145.807 21.3543 146.258 21.6768 146.623 22.0867C146.987 22.4966 147.256 22.9834 147.41 23.5114C147.576 24.0509 147.659 24.6128 147.656 25.1777H139.938V28.4381H152.134C152.161 28.2366 152.174 28.0335 152.174 27.8302V27.2132C152.201 25.7519 151.977 24.297 151.512 22.9125C151.123 21.7716 150.502 20.7253 149.687 19.8411Z" fill="black"/>
<path d="M179.187 32.1261C178.873 31.5031 178.72 30.8111 178.739 30.1131V7.41138L174.315 8.25802V30.1716C174.31 31.0049 174.391 31.8365 174.556 32.653C174.705 33.3927 175.01 34.0916 175.451 34.702C175.918 35.3158 176.534 35.7981 177.241 36.1026C178.173 36.4766 179.173 36.6499 180.175 36.6115C180.706 36.6108 181.235 36.5671 181.759 36.4809H181.804V32.8782C181.577 32.913 181.348 32.9311 181.119 32.9322C180.113 32.9322 179.468 32.6665 179.178 32.1396" fill="black"/>
<path d="M108.715 47.3296C108.715 48.9328 108 49.739 106.559 49.739C105.119 49.739 104.492 48.9644 104.492 47.4242V43.925H105.159V47.3792C105.159 48.5501 105.649 49.1355 106.631 49.1355C107.612 49.1355 108.086 48.5696 108.053 47.4377V43.925H108.715V47.3296Z" fill="black"/>
<path d="M113.413 49.6401H112.764V47.3164C112.764 46.4472 112.451 46.0149 111.82 46.0149C111.667 46.012 111.516 46.0436 111.376 46.1075C111.237 46.1714 111.113 46.266 111.015 46.3842C110.799 46.6449 110.686 46.9769 110.698 47.3164V49.6401H110.049V45.5601H110.698V46.2401C110.827 45.9979 111.022 45.7971 111.259 45.6603C111.496 45.5234 111.766 45.456 112.04 45.4655C112.232 45.4556 112.424 45.4911 112.601 45.5693C112.777 45.6475 112.933 45.7662 113.055 45.9158C113.314 46.2772 113.439 46.7186 113.409 47.1633L113.413 49.6401Z" fill="black"/>
<path d="M117.824 45.5598L116.209 49.6399H115.569L114.035 45.5598H114.746L115.775 48.5276C115.844 48.7107 115.892 48.9011 115.918 49.095C115.941 48.9065 115.983 48.7209 116.044 48.5411L117.122 45.5598H117.824Z" fill="black"/>
<path d="M121.738 47.7667H118.875C118.86 48.15 118.989 48.5249 119.238 48.816C119.362 48.9418 119.512 49.0397 119.677 49.1033C119.842 49.167 120.019 49.1949 120.195 49.1853C120.654 49.1858 121.1 49.0268 121.457 48.7349V49.3474C121.039 49.6262 120.544 49.7635 120.043 49.7392C119.792 49.7501 119.542 49.7058 119.31 49.6093C119.079 49.5129 118.871 49.3666 118.701 49.1807C118.354 48.738 118.185 48.1804 118.226 47.6181C118.203 47.0512 118.393 46.4963 118.759 46.0644C118.925 45.8712 119.131 45.7173 119.363 45.6138C119.595 45.5102 119.847 45.4596 120.101 45.4654C120.332 45.4514 120.563 45.4907 120.776 45.5805C120.989 45.6703 121.179 45.8081 121.331 45.9833C121.648 46.3939 121.806 46.9055 121.779 47.4244L121.738 47.7667ZM121.072 47.2128C121.094 46.889 120.997 46.5683 120.799 46.3121C120.709 46.2054 120.595 46.1213 120.467 46.0666C120.339 46.0118 120.2 45.988 120.061 45.9968C119.914 45.9947 119.769 46.0233 119.634 46.0807C119.5 46.138 119.378 46.223 119.278 46.3301C119.055 46.5667 118.917 46.8707 118.884 47.1947L121.072 47.2128Z" fill="black"/>
<path d="M123.054 44.5242C122.943 44.5239 122.836 44.4822 122.754 44.4071C122.714 44.367 122.683 44.3191 122.662 44.2665C122.642 44.2138 122.632 44.1575 122.633 44.1009C122.632 44.0449 122.641 43.9892 122.662 43.9373C122.683 43.8854 122.714 43.8383 122.754 43.7992C122.794 43.76 122.84 43.7291 122.892 43.7082C122.943 43.6874 122.998 43.6769 123.054 43.6776C123.109 43.6764 123.164 43.6866 123.216 43.7075C123.268 43.7284 123.314 43.7596 123.354 43.7992C123.395 43.8376 123.427 43.8844 123.449 43.9364C123.47 43.9885 123.48 44.0445 123.479 44.1009C123.48 44.1571 123.469 44.213 123.447 44.2649C123.426 44.3168 123.394 44.3637 123.354 44.4026C123.314 44.4422 123.268 44.4734 123.216 44.4943C123.164 44.5152 123.109 44.5254 123.054 44.5242ZM123.367 49.6401H122.7V45.56H123.349L123.367 49.6401Z" fill="black"/>
<path d="M125.331 49.6401H124.683V43.6011H125.331V49.6401Z" fill="black"/>
<path d="M134.744 49.6399H134.082V45.8075C134.082 45.5057 134.082 45.132 134.136 44.6951C134.094 44.884 134.037 45.0692 133.966 45.2491L132.024 49.6399H131.702L129.765 45.2806C129.689 45.0916 129.632 44.8954 129.595 44.6951C129.617 44.9248 129.626 45.2986 129.626 45.8165V49.6399H128.964V43.925H129.859L131.604 47.9106C131.706 48.1337 131.793 48.364 131.863 48.5996H131.89C132.002 48.2843 132.091 48.0502 132.163 47.8971L133.952 43.925H134.785L134.744 49.6399Z" fill="black"/>
<path d="M137.844 49.739C137.578 49.7507 137.313 49.7058 137.066 49.6073C136.818 49.5087 136.594 49.3587 136.408 49.1671C136.038 48.752 135.845 48.2067 135.871 47.6495C135.855 47.3576 135.896 47.0654 135.992 46.7895C136.088 46.5136 136.237 46.2595 136.43 46.0418C136.629 45.846 136.865 45.6938 137.124 45.5945C137.384 45.4953 137.661 45.4513 137.938 45.4653C138.2 45.4511 138.462 45.494 138.706 45.5911C138.95 45.6883 139.17 45.8374 139.352 46.0282C139.713 46.463 139.896 47.0205 139.862 47.5864C139.889 48.1598 139.692 48.721 139.312 49.1491C139.123 49.3469 138.894 49.5018 138.641 49.6035C138.388 49.7053 138.116 49.7515 137.844 49.739ZM137.889 46.0147C137.701 46.0094 137.514 46.0471 137.343 46.1252C137.172 46.2032 137.02 46.3194 136.9 46.4651C136.642 46.8032 136.513 47.2237 136.538 47.6495C136.514 48.0634 136.645 48.4713 136.905 48.7933C137.028 48.9316 137.18 49.0405 137.35 49.1121C137.521 49.1838 137.705 49.2164 137.889 49.2076C138.071 49.2189 138.253 49.1877 138.422 49.1167C138.59 49.0456 138.74 48.9365 138.86 48.7978C139.102 48.4599 139.221 48.0476 139.195 47.6315C139.221 47.211 139.103 46.7944 138.86 46.4516C138.745 46.3113 138.6 46.1991 138.435 46.1234C138.271 46.0478 138.092 46.0106 137.911 46.0147H137.889Z" fill="black"/>
<path d="M143.011 46.2221C142.867 46.1268 142.696 46.081 142.524 46.0915C142.384 46.093 142.247 46.1297 142.125 46.1981C142.003 46.2665 141.9 46.3646 141.826 46.4833C141.626 46.8052 141.53 47.1808 141.548 47.5596V49.6402H140.9V45.5601H141.548V46.4022C141.621 46.1422 141.767 45.9091 141.969 45.7312C142.146 45.5744 142.373 45.4879 142.609 45.488C142.739 45.4815 142.87 45.5014 142.993 45.5466L143.011 46.2221Z" fill="black"/>
<path d="M146.859 47.7666H143.996C143.981 48.1499 144.11 48.5248 144.358 48.8158C144.483 48.9417 144.633 49.0396 144.798 49.1032C144.963 49.1668 145.139 49.1947 145.316 49.1851C145.775 49.1857 146.221 49.0267 146.577 48.7348V49.3473C146.159 49.6261 145.664 49.7633 145.164 49.739C144.913 49.75 144.663 49.7056 144.431 49.6092C144.199 49.5127 143.991 49.3665 143.821 49.1806C143.47 48.7394 143.295 48.1823 143.329 47.6179C143.307 47.0504 143.499 46.4955 143.866 46.0643C144.032 45.8711 144.239 45.7172 144.471 45.6136C144.703 45.5101 144.955 45.4594 145.208 45.4653C145.439 45.4516 145.67 45.4911 145.883 45.5808C146.096 45.6706 146.286 45.8082 146.439 45.9832C146.755 46.3938 146.914 46.9054 146.886 47.4243L146.859 47.7666ZM146.192 47.2126C146.212 46.8892 146.115 46.5695 145.92 46.312C145.829 46.2052 145.716 46.1212 145.588 46.0664C145.459 46.0117 145.32 45.9878 145.181 45.9967C145.035 45.9946 144.89 46.0232 144.755 46.0805C144.62 46.1379 144.499 46.2228 144.398 46.33C144.176 46.5666 144.038 46.8706 144.005 47.1946L146.192 47.2126Z" fill="black"/>
<path d="M150.161 49.6401V43.9253H151.78C152.2 43.902 152.615 44.0314 152.948 44.2901C153.089 44.4026 153.203 44.5464 153.281 44.7104C153.359 44.8744 153.398 45.0542 153.395 45.2358C153.4 45.5421 153.304 45.8415 153.122 46.0869C152.942 46.3306 152.69 46.5104 152.402 46.6003C152.754 46.6321 153.081 46.7923 153.324 47.0507C153.559 47.3128 153.682 47.6571 153.668 48.0099C153.675 48.2342 153.632 48.4573 153.541 48.6624C153.45 48.8674 153.315 49.0493 153.145 49.1943C152.776 49.5048 152.305 49.6654 151.825 49.6446L150.161 49.6401ZM150.827 44.5333V46.3796H151.507C151.816 46.3961 152.12 46.302 152.366 46.1139C152.473 46.0227 152.557 45.9075 152.611 45.7777C152.666 45.6478 152.689 45.507 152.679 45.3664C152.679 44.8125 152.317 44.5333 151.592 44.5333H150.827ZM150.827 46.9786V49.0367H151.722C152.044 49.0548 152.361 48.9557 152.617 48.7574C152.724 48.6625 152.809 48.5444 152.865 48.4118C152.921 48.2792 152.946 48.1357 152.939 47.9919C152.939 47.3164 152.483 46.9786 151.57 46.9786H150.827Z" fill="black"/>
<path d="M157.981 47.7667H155.118C155.102 48.15 155.232 48.5249 155.48 48.816C155.606 48.9421 155.756 49.0402 155.922 49.1039C156.088 49.1675 156.265 49.1952 156.442 49.1853C156.9 49.1848 157.344 49.0258 157.699 48.7349V49.3474C157.281 49.6262 156.786 49.7635 156.285 49.7392C156.035 49.7501 155.785 49.7058 155.553 49.6093C155.321 49.5129 155.113 49.3666 154.943 49.1807C154.618 48.7249 154.447 48.1761 154.455 47.6151C154.463 47.0542 154.65 46.5106 154.988 46.0644C155.154 45.8712 155.36 45.7173 155.592 45.6138C155.824 45.5102 156.076 45.4596 156.33 45.4654C156.561 45.4514 156.792 45.4907 157.005 45.5805C157.218 45.6703 157.408 45.8081 157.56 45.9833C157.877 46.3939 158.035 46.9055 158.008 47.4244L157.981 47.7667ZM157.314 47.2128C157.335 46.8899 157.24 46.5703 157.046 46.3121C156.954 46.2066 156.839 46.1235 156.71 46.0689C156.582 46.0143 156.443 45.9897 156.303 45.9968C156.157 45.9947 156.012 46.0233 155.877 46.0807C155.742 46.138 155.621 46.223 155.52 46.3301C155.298 46.5667 155.16 46.8707 155.127 47.1947L157.314 47.2128Z" fill="black"/>
<path d="M161.864 49.64H161.215V49.0051C161.099 49.2338 160.92 49.4244 160.7 49.5545C160.479 49.6845 160.227 49.7485 159.972 49.7391C159.626 49.7583 159.286 49.6421 159.023 49.4149C158.909 49.305 158.819 49.1719 158.759 49.0244C158.7 48.8769 158.672 48.7183 158.679 48.5592C158.679 47.7936 159.126 47.3523 160.021 47.2082L161.238 47.0371C161.238 46.3435 160.96 45.9968 160.401 45.9968C159.907 45.9901 159.428 46.1701 159.059 46.5012V45.8302C159.471 45.5698 159.95 45.4368 160.437 45.4474C161.388 45.4474 161.864 45.9547 161.864 46.9695V49.64ZM161.215 47.5775L160.235 47.7126C159.995 47.7353 159.762 47.8123 159.555 47.9377C159.473 48.0065 159.409 48.0948 159.37 48.1947C159.33 48.2945 159.315 48.4028 159.327 48.5097C159.325 48.6019 159.343 48.6934 159.379 48.7781C159.416 48.8628 159.47 48.9387 159.538 49.0006C159.696 49.1304 159.897 49.1962 160.101 49.1852C160.251 49.1893 160.4 49.1612 160.538 49.103C160.676 49.0448 160.8 48.9577 160.902 48.8474C161.113 48.6104 161.225 48.3008 161.215 47.9828V47.5775Z" fill="black"/>
<path d="M166.365 49.6399H165.716V48.9959C165.6 49.2271 165.421 49.42 165.2 49.5517C164.979 49.6835 164.725 49.7485 164.468 49.739C163.501 49.739 163.018 49.1595 163.018 48.0007V45.5598H163.663V47.8881C163.663 48.7482 163.989 49.1761 164.647 49.1761C164.794 49.1797 164.941 49.1501 165.076 49.0893C165.21 49.0285 165.33 48.9381 165.425 48.8248C165.633 48.5723 165.743 48.2521 165.734 47.9241V45.5733H166.383L166.365 49.6399Z" fill="black"/>
<path d="M169.559 49.5995C169.37 49.6933 169.161 49.7382 168.951 49.7301C168.239 49.7301 167.886 49.3293 167.886 48.5322V46.1184H167.188V45.5599H167.886V44.5647L168.535 44.353V45.5599H169.559V46.1184H168.535V48.4196C168.517 48.6247 168.565 48.8302 168.673 49.005C168.73 49.0662 168.8 49.1137 168.877 49.1441C168.955 49.1745 169.038 49.187 169.121 49.1807C169.273 49.1836 169.422 49.1362 169.546 49.0456L169.559 49.5995Z" fill="black"/>
<path d="M173.648 45.5598L171.787 50.2929C171.452 51.1395 170.986 51.5629 170.382 51.5629C170.24 51.5662 170.099 51.548 169.962 51.5088V50.9234C170.084 50.9688 170.212 50.9931 170.342 50.9954C170.512 50.9904 170.676 50.9302 170.809 50.8239C170.942 50.7176 171.037 50.5708 171.08 50.4055L171.407 49.6354L169.823 45.5823H170.544L171.64 48.7347C171.64 48.7752 171.68 48.8788 171.72 49.05H171.747C171.747 48.9824 171.787 48.8833 171.823 48.7437L172.977 45.5913L173.648 45.5598Z" fill="black"/>
<defs>
<linearGradient id="paint0_linear_4_116" x1="6.2938" y1="26.2367" x2="74.3864" y2="26.2367" gradientUnits="userSpaceOnUse">
<stop stop-color="#CA9C43"/>
<stop offset="0.33" stop-color="#C79A42"/>
<stop offset="0.56" stop-color="#BE923E"/>
<stop offset="0.77" stop-color="#AE8638"/>
<stop offset="0.96" stop-color="#98752F"/>
<stop offset="1" stop-color="#92702D"/>
</linearGradient>
</defs>
</svg>
