<svg width="44" height="39" viewBox="0 0 44 39" fill="none" xmlns="http://www.w3.org/2000/svg">
<path d="M5.28319 38.1707C5.06942 38.1723 4.85581 38.1587 4.64395 38.13C3.37415 37.9611 1.63288 37.2274 0.545314 34.703C-0.221191 32.9211 -0.177804 30.6966 0.663906 28.5886C2.27212 24.5793 6.44885 20.5583 10.8309 18.8143L11.1954 18.6629C8.72523 17.5972 5.77201 16.0278 4.29396 13.3608C3.96105 12.8004 3.74115 12.1795 3.64685 11.5335C3.55255 10.8875 3.5857 10.2291 3.74439 9.59606C4.32288 7.55793 6.52695 6.13705 8.87853 6.30011C10.614 6.42239 12.3495 7.29588 14.0127 8.89436C15.5341 10.3502 16.7142 11.9487 17.9667 13.6316C18.4006 14.2139 18.8489 14.8195 19.3261 15.4368L17.6196 16.7703C17.1423 16.1385 16.6766 15.53 16.237 14.9476C14.9874 13.2676 13.923 11.8176 12.5202 10.4783C11.233 9.23793 9.95742 8.56826 8.72812 8.48091C7.58559 8.39939 6.15093 9.03703 5.83565 10.2017C5.67877 10.9252 5.80628 11.6817 6.19142 12.3126C7.3918 14.4789 10.0644 15.8298 12.2656 16.7674C12.7516 16.9479 14.1718 17.5943 14.0647 18.8492C13.9606 19.8362 12.9511 20.3167 11.6466 20.8408C7.83724 22.3606 4.07124 25.9623 2.67996 29.4067C2.05229 30.9732 2.00312 32.5892 2.54112 33.8382C3.09937 35.1339 3.88323 35.8327 4.94187 35.9754C6.94925 36.2432 9.69999 34.4555 11.1954 32.5717C12.5925 30.8247 13.6627 28.6818 14.7011 26.6232C14.9903 26.0409 15.2969 25.4353 15.6006 24.8559C17.2754 21.6531 18.7505 18.6425 20.11 15.6522C22.8087 9.72126 26.8957 4.85012 31.6192 1.94141C33.3286 0.887398 35.9897 -0.294721 38.9516 0.0663201C40.6523 0.273045 42.0552 0.995128 42.8969 2.10446C43.9035 3.42633 44.1407 5.33345 43.5275 7.20562C41.9482 12.036 37.3434 16.2695 32.9034 19.8159C34.4481 20.8066 35.8697 21.9796 37.138 23.3098C39.0239 25.3479 39.7644 28.7225 37.5285 31.2352C35.9521 33.0055 33.077 33.8266 30.2018 31.6691C28.9388 30.7026 27.7584 29.6312 26.673 28.4663L26.6007 28.3848L20.6654 21.4464L22.3025 20.0255L28.2465 26.9697V26.9552C29.249 28.0368 30.3405 29.0312 31.5092 29.9279C33.4096 31.3546 35.0814 30.7432 35.9347 29.7853C36.9384 28.6556 37.2537 26.6145 35.5732 24.7976C34.2726 23.4463 32.8024 22.2718 31.1997 21.3037C30.962 21.1693 30.7615 20.977 30.6167 20.7444C30.4718 20.5119 30.3872 20.2465 30.3705 19.9725C30.3538 19.6985 30.4056 19.4247 30.5212 19.1761C30.6367 18.9275 30.8123 18.712 31.032 18.5493C35.3707 15.1165 40.0247 11.0053 41.4883 6.53304C41.7775 5.61296 41.8672 4.31729 41.199 3.43216C40.5309 2.54702 39.3594 2.31118 38.7115 2.23257C36.3628 1.94141 34.1819 2.92845 32.7646 3.80193C28.4056 6.48936 24.6136 11.0198 22.0942 16.5636C20.7145 19.5917 19.222 22.6372 17.5299 25.8808C17.2407 26.4631 16.9514 27.0309 16.6448 27.6277C15.5601 29.7853 14.4379 32.0185 12.902 33.9518C10.5128 36.91 7.43518 38.1707 5.28319 38.1707Z" fill="url(#paint0_linear_159_1224)"/>
<defs>
<linearGradient id="paint0_linear_159_1224" x1="4.06918" y1="16.963" x2="48.0936" y2="16.963" gradientUnits="userSpaceOnUse">
<stop stop-color="#CA9C43"/>
<stop offset="0.33" stop-color="#C79A42"/>
<stop offset="0.56" stop-color="#BE923E"/>
<stop offset="0.77" stop-color="#AE8638"/>
<stop offset="0.96" stop-color="#98752F"/>
<stop offset="1" stop-color="#92702D"/>
</linearGradient>
</defs>
</svg>
