<svg width="150" height="126" viewBox="0 0 150 126" fill="none" xmlns="http://www.w3.org/2000/svg">
<path d="M67.0814 32.1258C63.4165 27.4077 60.7626 23.3675 57.1053 19.871C54.8611 17.7188 52.1804 16.0721 49.4729 15.8959C49.3312 15.8959 49.1895 15.8959 49.044 15.8959C46.5088 15.8959 43.9353 17.466 43.4145 19.5187C43.3059 19.9155 43.2518 20.3252 43.2536 20.7365C43.2805 21.8504 43.5873 22.9396 44.1459 23.9036C46.3901 28.0051 51.4911 30.7433 56.2168 32.7117L55.5467 34.301L56.1364 32.6811C56.6189 32.8625 57.0841 33.0868 57.5266 33.3513C58.1584 33.8146 59.2958 34.3163 59.4414 36.1354C59.4414 36.2043 59.4414 36.2732 59.4414 36.3383C59.1809 37.8396 58.3116 38.2034 57.6376 38.6706C56.7755 39.1446 55.8794 39.5542 54.9569 39.896C47.8491 42.6687 40.0406 49.742 37.2794 56.7004C36.6241 58.2982 36.2771 60.0056 36.2569 61.7325C36.2483 63.0479 36.509 64.3512 37.0228 65.5621C38.6045 69.0087 40.4963 69.9164 42.8783 69.9853C46.7079 70.0657 51.8932 66.5999 54.551 63.1954C57.9976 58.8756 60.4371 53.4031 63.1714 48.191C66.2657 42.3189 69.2017 36.3715 71.9795 30.3488C76.7282 20.0089 84.2993 10.0749 94.2678 3.96285C97.8064 1.79912 101.927 0.267277 106.243 0.263448C106.937 0.262389 107.63 0.303314 108.319 0.385996C110.999 0.715342 113.864 1.757 115.752 4.18497C116.96 5.82863 117.593 7.82475 117.552 9.86427C117.542 11.166 117.329 12.4582 116.92 13.6939C113.473 24.0108 103.198 32.5202 95.2635 38.7855L94.9074 38.3336H95.432C95.4378 38.5006 95.3772 38.663 95.2635 38.7855L94.9074 38.3336L95.229 37.8702C95.2982 37.9339 95.353 38.0116 95.39 38.0981C95.4269 38.1845 95.4452 38.2779 95.4435 38.3719H94.9265L95.229 37.8702C98.6542 39.9287 101.793 42.4292 104.566 45.3073C106.863 47.7659 107.928 50.619 107.92 53.2959C107.92 58.6573 103.742 63.3141 98.2583 63.3333C96.0639 63.3333 93.7393 62.5673 91.5488 60.9283C89.1023 59.0672 86.8181 57.002 84.7206 54.7549L84.6095 54.6324L73.0173 41.1713L75.6291 38.9195L87.2175 52.3653L85.9537 53.5371L87.2022 52.3499C89.1656 54.4664 91.3051 56.4125 93.5976 58.1671C95.2865 59.4232 96.8566 59.8866 98.2468 59.8904C101.659 59.8904 104.458 56.911 104.462 53.2997C104.462 51.5113 103.796 49.562 102.034 47.6625C99.4754 45.0172 96.5826 42.7166 93.4291 40.819C93.0176 40.5922 92.67 40.2652 92.4184 39.8684C92.1669 39.4715 92.0196 39.0175 91.9902 38.5486C91.9608 38.0796 92.0502 37.6109 92.2502 37.1857C92.4502 36.7605 92.7543 36.3926 93.1342 36.1162C101.012 29.9889 110.777 21.5637 113.646 12.6599C113.943 11.7656 114.099 10.8299 114.105 9.88725C114.145 8.60619 113.761 7.34779 113.014 6.30657C111.98 4.92408 110.004 4.07774 107.905 3.83264C107.354 3.76491 106.799 3.73166 106.243 3.73307C102.777 3.73307 99.2042 5.00067 96.0677 6.92696C86.8767 12.5527 79.6234 21.9505 75.1159 31.8194C72.3242 37.9085 69.3447 43.9095 66.2274 49.8186C63.5467 54.8736 61.0804 60.5415 57.247 65.3668C53.988 69.3611 48.5002 73.3707 42.8821 73.4511C39.2938 73.52 35.7131 71.4061 33.8634 66.9407C33.1649 65.2926 32.8117 63.5187 32.8256 61.7286C32.844 59.5591 33.2769 57.4131 34.1008 55.406C37.4326 47.2642 45.6739 39.9075 53.7008 36.6868C54.4553 36.4068 55.1897 36.0754 55.899 35.695C56.0162 35.6278 56.1277 35.5509 56.2321 35.4652L56.8947 36.1201L56.01 36.0435C56.0177 35.8314 56.0958 35.6279 56.2321 35.4652L56.8947 36.1201L56.01 36.0435L56.9674 36.1239H56.0062V36.0435L56.9636 36.1239H56.6074L56.1211 36.572C56.1479 36.5451 56.0139 36.4954 56.0024 36.1239H56.6074L56.1211 36.572C56.01 36.3766 54.9454 35.9324 54.9722 35.9094L54.8918 35.875C50.0244 33.7993 44.188 30.9424 41.1512 25.5695C40.3063 24.0928 39.8491 22.4262 39.8223 20.725C39.8205 19.9962 39.9197 19.2706 40.1172 18.569C41.312 14.5747 45.2833 12.4416 49.0593 12.4416C49.2814 12.4416 49.5035 12.4493 49.7256 12.4646C53.6548 12.7556 56.9368 14.9462 59.5026 17.3895C63.5122 21.2191 66.2542 25.4316 69.8196 30.0272L67.0814 32.1258Z" fill="#CA9C42"/>
<path d="M63.0144 83.7336L57.6759 98.1636C57.293 99.2014 56.6956 99.1976 56.3203 98.1636L50.9128 83.7451H44.6974L52.7702 103.717C53.1059 104.548 53.6829 105.26 54.4269 105.761C55.171 106.261 56.0479 106.527 56.9446 106.525C57.8413 106.522 58.7168 106.251 59.458 105.747C60.1993 105.242 60.7724 104.527 61.1034 103.694L69.0422 83.7451L63.0144 83.7336Z" fill="#CA9C42"/>
<path d="M34.5375 82.9829C31.7328 82.9829 29.043 84.0968 27.0595 86.0796C25.0759 88.0624 23.9611 90.7518 23.9601 93.5565V106.512H29.7045V93.5871C29.7045 93.5871 29.7045 93.568 29.7045 93.5565C29.7045 93.545 29.7045 93.5182 29.7045 93.499C29.7466 92.24 30.2783 91.047 31.1865 90.1739C32.0946 89.3009 33.3076 88.8166 34.5673 88.824C35.8271 88.8315 37.0342 89.3302 37.9319 90.214C38.8296 91.0978 39.3471 92.297 39.3743 93.5565V106.512H45.1187V93.5603C45.1187 92.1718 44.8452 90.7968 44.3138 89.514C43.7824 88.2311 43.0036 87.0655 42.0218 86.0837C41.0399 85.1018 39.8743 84.323 38.5914 83.7916C37.3086 83.2602 35.9337 82.9867 34.5451 82.9867" fill="#CA9C42"/>
<path d="M15.8681 95.9346C15.8863 96.5815 15.7746 97.2255 15.5396 97.8285C15.3046 98.4314 14.9511 98.9812 14.5 99.4452C14.0489 99.9091 13.5093 100.278 12.9132 100.53C12.3171 100.782 11.6765 100.911 11.0294 100.911C10.3822 100.911 9.74166 100.782 9.14554 100.53C8.54942 100.278 8.00985 99.9091 7.55874 99.4452C7.10762 98.9812 6.75412 98.4314 6.51914 97.8285C6.28415 97.2255 6.17246 96.5815 6.19066 95.9346V82.9829H0.446251V95.9346C0.419499 97.3404 0.673269 98.7373 1.19272 100.044C1.71218 101.35 2.48689 102.54 3.47156 103.544C4.45623 104.547 5.63111 105.345 6.92749 105.889C8.22387 106.433 9.61574 106.713 11.0217 106.713C12.4277 106.713 13.8196 106.433 15.1159 105.889C16.4123 105.345 17.5872 104.547 18.5719 103.544C19.5565 102.54 20.3313 101.35 20.8507 100.044C21.3702 98.7373 21.6239 97.3404 21.5972 95.9346V82.9829H15.8528L15.8681 95.9346Z" fill="#CA9C42"/>
<path d="M114.457 85.5143C113.483 84.4889 112.29 83.6946 110.969 83.1898C109.568 82.6555 108.079 82.3892 106.58 82.4047C104.949 82.3898 103.331 82.6875 101.812 83.2817C100.373 83.8372 99.0654 84.6848 97.9706 85.771C96.8758 86.8573 96.0179 88.1586 95.4511 89.5929C94.8189 91.1848 94.5053 92.8854 94.5282 94.5982C94.4986 96.3127 94.8123 98.0159 95.4511 99.6073C96.0275 101.019 96.9013 102.29 98.0131 103.333C99.1347 104.364 100.449 105.162 101.881 105.681C103.448 106.249 105.105 106.531 106.771 106.512C109.995 106.562 113.122 105.408 115.541 103.276L112.435 99.5996C111.783 100.16 111.078 100.655 110.329 101.078C109.208 101.632 107.968 101.902 106.718 101.863C105.908 101.864 105.105 101.719 104.347 101.434C103.608 101.167 102.918 100.779 102.306 100.285C101.711 99.8035 101.219 99.207 100.859 98.5312C100.489 97.8329 100.271 97.0641 100.219 96.2755C100.095 94.9188 100.095 93.5537 100.219 92.197C100.261 91.4373 100.457 90.694 100.795 90.0126C101.134 89.3311 101.607 88.7258 102.187 88.2334C103.395 87.2028 104.943 86.657 106.53 86.7015C107.351 86.6822 108.166 86.8362 108.924 87.1534C109.559 87.4205 110.127 87.8253 110.586 88.3385C111.046 88.8518 111.386 89.4607 111.581 90.1214C111.79 90.7973 111.895 91.5011 111.892 92.2085H102.172V96.287H117.54C117.574 96.0332 117.591 95.7772 117.59 95.5211V94.7552C117.625 92.9247 117.344 91.1019 116.759 89.3669C116.268 87.9443 115.485 86.6399 114.461 85.5373" fill="#CA9C42"/>
<path d="M149.422 96.6929C149.12 95.9759 148.68 95.3253 148.127 94.7781C147.605 94.2754 147.006 93.858 146.354 93.5411C145.749 93.2485 145.12 93.0076 144.474 92.8211C143.803 92.6402 143.121 92.4995 142.433 92.3999C140.667 92.1433 137.24 91.9825 137.24 90.5234C137.24 89.0643 139.649 89.2328 139.871 89.2137H148.698V83.7335H140.483C139.417 83.7269 138.353 83.8218 137.305 84.0169C136.297 84.2094 135.329 84.5693 134.44 85.0815C133.536 85.6126 132.774 86.355 132.219 87.2452C131.598 88.2852 131.289 89.4813 131.327 90.6919C131.304 91.5048 131.454 92.3133 131.767 93.0639C132.08 93.8146 132.549 94.4902 133.142 95.0461C133.667 95.5437 134.264 95.9606 134.911 96.2831C135.519 96.5952 136.153 96.8515 136.807 97.049C137.402 97.2249 138.005 97.3706 138.615 97.4856L140.074 97.746C140.686 97.8533 144.007 97.9528 144.007 99.3621C144.007 101.017 141.586 101.028 141 101.028H131.875V106.516H140.495C141.843 106.557 143.19 106.418 144.501 106.102C145.512 105.845 146.468 105.406 147.323 104.808C148.139 104.221 148.797 103.44 149.238 102.537C149.701 101.55 149.93 100.471 149.908 99.3813C149.929 98.4633 149.761 97.5509 149.414 96.7005" fill="#CA9C42"/>
<path d="M88.9715 85.5143C87.998 84.4889 86.8072 83.6946 85.4866 83.1897C84.0856 82.656 82.597 82.3898 81.0978 82.4046C79.4658 82.3893 77.846 82.687 76.3261 83.2816C74.8855 83.8362 73.5755 84.6834 72.4787 85.7696C71.3819 86.8559 70.5222 88.1576 69.9537 89.5928C69.3202 91.1845 69.0053 92.8851 69.0269 94.5981C68.9985 96.3129 69.3136 98.0161 69.9537 99.6072C70.53 101.019 71.4039 102.29 72.5157 103.333C73.6366 104.365 74.9514 105.163 76.3836 105.681C77.9492 106.25 79.6046 106.531 81.2702 106.512C84.4954 106.562 87.6234 105.408 90.0438 103.276L86.9342 99.5996C86.2838 100.16 85.5796 100.656 84.8317 101.078C83.7116 101.631 82.4728 101.9 81.2242 101.863C80.4134 101.864 79.609 101.719 78.8499 101.434C78.1106 101.167 77.4209 100.778 76.8087 100.285C76.2134 99.8034 75.7211 99.2069 75.3611 98.5311C74.9911 97.8328 74.7731 97.0641 74.7215 96.2755C74.5977 94.9188 74.5977 93.5536 74.7215 92.1969C74.7642 91.4374 74.9607 90.6945 75.299 90.0131C75.6374 89.3318 76.1106 88.7263 76.69 88.2333C77.898 87.2028 79.4454 86.657 81.0327 86.7015C81.8547 86.6822 82.6715 86.8362 83.4301 87.1534C84.0652 87.4204 84.633 87.8252 85.0927 88.3385C85.5523 88.8518 85.8922 89.4607 86.0878 90.1213C86.2934 90.7979 86.3967 91.5014 86.3942 92.2084H76.6861V96.287H92.0582C92.0891 96.0328 92.1044 95.7771 92.1041 95.5211V94.7551C92.14 92.9249 91.8601 91.1021 91.2769 89.3669C90.7858 87.9444 90.0032 86.64 88.9792 85.5373" fill="#CA9C42"/>
<path d="M126.157 100.913C125.766 100.134 125.578 99.2683 125.609 98.397V69.9507L120.01 71.0038V98.443C120.004 99.4876 120.108 100.53 120.321 101.553C120.512 102.48 120.904 103.355 121.47 104.115C122.057 104.885 122.834 105.491 123.725 105.872C124.901 106.34 126.16 106.557 127.425 106.512C128.093 106.51 128.76 106.455 129.42 106.347H129.473V101.844C129.188 101.883 128.9 101.905 128.612 101.909C127.344 101.909 126.532 101.576 126.168 100.913" fill="#CA9C42"/>
<path d="M37.3331 119.931C37.3331 121.943 36.4267 122.948 34.614 122.945C32.8754 122.945 32.0073 121.979 32.0099 120.046V115.669H32.8486V119.989C32.8486 121.459 33.4651 122.191 34.7021 122.191C35.9391 122.191 36.4944 121.482 36.4944 120.065V115.669H37.3331V119.931Z" fill="#CA9C42"/>
<path d="M43.2498 122.826H42.434V119.912C42.434 118.824 42.0511 118.284 41.2469 118.284C41.0536 118.28 40.8618 118.319 40.6856 118.399C40.5093 118.478 40.3531 118.596 40.2282 118.744C39.9623 119.073 39.8261 119.489 39.8452 119.912V122.826H39.0104V117.714H39.8299V118.564C39.9916 118.262 40.2343 118.012 40.5306 117.84C40.827 117.669 41.1652 117.584 41.5073 117.595C41.7477 117.58 41.9885 117.62 42.2104 117.714C42.4324 117.808 42.6296 117.952 42.7864 118.135C43.1118 118.59 43.2688 119.143 43.2306 119.701L43.2498 122.826Z" fill="#CA9C42"/>
<path d="M48.8103 117.714L46.773 122.826H45.9726L44.0348 117.714H44.9347L46.2292 121.428C46.317 121.658 46.3774 121.897 46.4091 122.141C46.4389 121.905 46.4928 121.672 46.57 121.447L47.9295 117.714H48.8103Z" fill="#CA9C42"/>
<path d="M53.743 120.475H50.1355C50.1194 120.956 50.2832 121.426 50.595 121.792C50.7523 121.95 50.941 122.073 51.1488 122.152C51.3567 122.232 51.579 122.267 51.8013 122.256C52.3806 122.256 52.9421 122.055 53.3906 121.689V122.455C52.8642 122.803 52.2404 122.975 51.6099 122.945C51.2921 122.961 50.9746 122.907 50.6801 122.786C50.3856 122.666 50.1212 122.482 49.9057 122.248C49.4653 121.694 49.2456 120.997 49.2891 120.291C49.2597 119.581 49.5005 118.886 49.9631 118.346C50.1696 118.102 50.4274 117.907 50.718 117.775C51.0087 117.642 51.325 117.576 51.6443 117.58C51.9349 117.564 52.2253 117.614 52.4938 117.726C52.7623 117.838 53.0021 118.009 53.1953 118.227C53.5886 118.743 53.783 119.383 53.743 120.031V120.475ZM52.9043 119.782C52.9289 119.385 52.8077 118.993 52.5634 118.679C52.4471 118.548 52.3025 118.446 52.1406 118.379C51.9786 118.313 51.8036 118.284 51.629 118.296C51.4453 118.293 51.2629 118.328 51.0935 118.399C50.9241 118.471 50.7713 118.576 50.6448 118.709C50.3649 119.007 50.1901 119.387 50.1469 119.793L52.9043 119.782Z" fill="#CA9C42"/>
<path d="M55.4011 116.419C55.3302 116.421 55.2598 116.408 55.194 116.382C55.1282 116.355 55.0684 116.316 55.0181 116.266C54.918 116.164 54.8619 116.026 54.8619 115.883C54.8619 115.74 54.918 115.602 55.0181 115.5C55.0679 115.45 55.1276 115.41 55.1935 115.383C55.2594 115.357 55.3301 115.345 55.4011 115.347C55.4719 115.346 55.5423 115.358 55.6081 115.385C55.6739 115.411 55.7337 115.45 55.784 115.5C55.8355 115.55 55.8763 115.609 55.9043 115.675C55.9322 115.741 55.9466 115.812 55.9466 115.883C55.9466 115.955 55.9322 116.025 55.9043 116.091C55.8763 116.157 55.8355 116.216 55.784 116.266C55.7336 116.316 55.6737 116.355 55.608 116.381C55.5422 116.408 55.4719 116.42 55.4011 116.419ZM55.784 122.826H54.9798V117.714H55.784V122.826Z" fill="#CA9C42"/>
<path d="M58.2732 122.826H57.4575V115.259H58.2732V122.826Z" fill="#CA9C42"/>
<path d="M70.1375 122.826H69.3026V118.024C69.3026 117.643 69.3256 117.18 69.3715 116.634C69.3192 116.87 69.2475 117.102 69.1571 117.327L66.7138 122.826H66.304L63.8646 117.365C63.7699 117.129 63.6981 116.884 63.6501 116.634H63.6271C63.6539 116.917 63.6693 117.4 63.6693 118.035V122.826H62.8612V115.669H63.968L66.1623 120.647C66.2934 120.924 66.4035 121.211 66.4917 121.505H66.507C66.6525 121.122 66.7636 120.819 66.8517 120.628L69.092 115.649H70.1413L70.1375 122.826Z" fill="#CA9C42"/>
<path d="M74.0436 122.945C73.7087 122.961 73.3743 122.905 73.0626 122.782C72.7509 122.658 72.4691 122.47 72.236 122.229C72.0027 121.97 71.8227 121.667 71.7064 121.339C71.5901 121.01 71.5397 120.662 71.5582 120.314C71.5362 119.949 71.5872 119.583 71.7082 119.238C71.8292 118.892 72.0177 118.575 72.2628 118.303C72.5137 118.056 72.8138 117.863 73.1436 117.738C73.4734 117.614 73.8256 117.56 74.1776 117.579C74.5083 117.561 74.839 117.615 75.147 117.737C75.455 117.858 75.7331 118.045 75.9622 118.284C76.3884 118.849 76.6147 119.54 76.6057 120.248C76.5967 120.955 76.3528 121.64 75.9125 122.194C75.6729 122.446 75.3821 122.643 75.0597 122.773C74.7372 122.902 74.3907 122.961 74.0436 122.945ZM74.1049 118.284C73.8698 118.273 73.6354 118.316 73.4192 118.409C73.2029 118.502 73.0106 118.642 72.8564 118.82C72.5291 119.241 72.3658 119.766 72.3969 120.298C72.3671 120.817 72.5324 121.328 72.8603 121.731C73.0161 121.905 73.2086 122.042 73.4238 122.133C73.6389 122.223 73.8716 122.265 74.1049 122.255C74.3327 122.267 74.5601 122.227 74.7698 122.137C74.9795 122.047 75.166 121.911 75.315 121.738C75.6261 121.317 75.778 120.798 75.744 120.275C75.7784 119.748 75.6266 119.225 75.315 118.797C75.1655 118.626 74.9786 118.491 74.7688 118.404C74.559 118.316 74.3318 118.278 74.1049 118.292V118.284Z" fill="#CA9C42"/>
<path d="M80.5616 118.545C80.3786 118.423 80.1605 118.365 79.9413 118.38C79.7659 118.382 79.5939 118.429 79.4413 118.515C79.2886 118.601 79.1603 118.725 79.0681 118.874C78.8121 119.274 78.6888 119.744 78.7158 120.218V122.826H77.8962V117.714H78.7158V118.767H78.7349C78.8284 118.442 79.0132 118.151 79.2672 117.928C79.4897 117.733 79.7755 117.625 80.0715 117.626C80.2377 117.618 80.4038 117.642 80.5616 117.694V118.545Z" fill="#CA9C42"/>
<path d="M85.4214 120.475H81.8254C81.8093 120.956 81.9732 121.426 82.285 121.792C82.4427 121.95 82.632 122.073 82.8405 122.153C83.0491 122.233 83.2721 122.268 83.4951 122.256C84.0731 122.255 84.6332 122.055 85.0806 121.689V122.455C84.5543 122.804 83.9305 122.975 83.2998 122.945C82.982 122.961 82.6646 122.907 82.37 122.786C82.0755 122.666 81.8111 122.482 81.5956 122.248C81.1552 121.694 80.9355 120.997 80.9791 120.291C80.9496 119.581 81.1904 118.886 81.6531 118.346C81.8596 118.102 82.1173 117.907 82.408 117.775C82.6986 117.642 83.0149 117.576 83.3343 117.58C83.625 117.563 83.9158 117.612 84.1846 117.724C84.4533 117.836 84.693 118.008 84.8853 118.227C85.2786 118.743 85.473 119.383 85.4329 120.031L85.4214 120.475ZM84.5866 119.782C84.6083 119.385 84.4859 118.993 84.2419 118.679C84.1256 118.548 83.9809 118.446 83.819 118.379C83.6571 118.313 83.4821 118.284 83.3075 118.296C83.1237 118.293 82.9414 118.328 82.772 118.399C82.6026 118.471 82.4498 118.576 82.3233 118.709C82.0434 119.007 81.8685 119.387 81.8254 119.793L84.5866 119.782Z" fill="#CA9C42"/>
<path d="M89.569 122.826V115.669H91.6063C92.1352 115.64 92.6567 115.802 93.0769 116.124C93.2528 116.266 93.3934 116.447 93.4877 116.652C93.5821 116.858 93.6276 117.082 93.6207 117.308C93.6299 117.687 93.5141 118.058 93.2913 118.365C93.0649 118.669 92.7467 118.891 92.3837 119V119.023C92.8201 119.059 93.2285 119.252 93.5326 119.567C93.8309 119.895 93.9878 120.327 93.9692 120.77C93.9778 121.051 93.9231 121.33 93.8091 121.588C93.695 121.845 93.5247 122.073 93.3105 122.256C92.8455 122.644 92.2538 122.847 91.6484 122.826H89.569ZM90.4077 116.427V118.725H91.2655C91.6545 118.748 92.0391 118.631 92.3493 118.395C92.4806 118.279 92.5834 118.133 92.6498 117.971C92.7162 117.808 92.7444 117.632 92.7322 117.457C92.7322 116.764 92.2727 116.415 91.3612 116.415L90.4077 116.427ZM90.4077 119.491V122.068H91.5565C91.9696 122.094 92.3781 121.969 92.7054 121.716C92.8413 121.597 92.9485 121.45 93.0188 121.284C93.0891 121.118 93.1208 120.938 93.1114 120.758C93.1114 119.916 92.5369 119.491 91.388 119.491H90.4077Z" fill="#CA9C42"/>
<path d="M99.4415 120.475H95.834C95.815 120.955 95.9777 121.426 96.2898 121.792C96.4475 121.95 96.6368 122.073 96.8454 122.153C97.0539 122.233 97.277 122.268 97.4999 122.255C98.0779 122.255 98.638 122.055 99.0854 121.689V122.455C98.5592 122.803 97.9353 122.975 97.3046 122.945C96.9873 122.961 96.6703 122.907 96.3763 122.787C96.0823 122.666 95.8187 122.482 95.6043 122.248C95.1612 121.695 94.94 120.998 94.9839 120.291C94.9539 119.58 95.1964 118.884 95.6617 118.345C95.8675 118.102 96.1246 117.907 96.4146 117.774C96.7046 117.642 97.0203 117.575 97.3391 117.579C97.6267 117.565 97.9137 117.616 98.1789 117.728C98.4442 117.84 98.6807 118.011 98.8709 118.227C99.2656 118.742 99.4614 119.382 99.4224 120.03L99.4415 120.475ZM98.6029 119.782C98.6237 119.385 98.5029 118.994 98.262 118.679C98.1444 118.548 97.999 118.446 97.8366 118.38C97.6742 118.314 97.4989 118.285 97.3238 118.296C97.14 118.293 96.9577 118.328 96.7883 118.399C96.6189 118.47 96.4661 118.576 96.3396 118.709C96.0625 119.008 95.8881 119.388 95.8417 119.793L98.6029 119.782Z" fill="#CA9C42"/>
<path d="M104.321 122.826H103.501V122.026H103.482C103.333 122.311 103.107 122.549 102.829 122.711C102.551 122.874 102.233 122.955 101.912 122.945C101.475 122.971 101.045 122.825 100.713 122.539C100.569 122.401 100.456 122.234 100.382 122.049C100.308 121.864 100.275 121.666 100.284 121.467C100.284 120.512 100.846 119.957 101.969 119.801L103.501 119.586C103.501 118.717 103.152 118.284 102.448 118.284C101.835 118.284 101.243 118.508 100.782 118.912V118.074C101.303 117.75 101.907 117.583 102.521 117.595C103.718 117.595 104.318 118.233 104.321 119.51V122.826ZM103.501 120.241L102.268 120.41C101.964 120.437 101.67 120.534 101.41 120.693C101.306 120.779 101.226 120.89 101.176 121.015C101.126 121.14 101.108 121.276 101.123 121.409C101.118 121.524 101.14 121.639 101.186 121.744C101.231 121.849 101.3 121.943 101.387 122.018C101.587 122.183 101.841 122.267 102.099 122.256C102.288 122.261 102.475 122.226 102.649 122.153C102.823 122.079 102.979 121.969 103.107 121.831C103.369 121.534 103.506 121.147 103.489 120.751L103.501 120.241Z" fill="#CA9C42"/>
<path d="M109.996 122.826H109.176V122.014H109.157C109.012 122.305 108.786 122.548 108.506 122.713C108.226 122.879 107.904 122.959 107.58 122.945C106.362 122.945 105.753 122.22 105.753 120.77V117.706H106.565V120.632C106.565 121.709 106.977 122.248 107.802 122.248C107.989 122.253 108.175 122.216 108.346 122.14C108.517 122.064 108.668 121.95 108.79 121.808C109.054 121.485 109.19 121.076 109.173 120.659V117.714H109.992L109.996 122.826Z" fill="#CA9C42"/>
<path d="M114.017 122.776C113.778 122.89 113.515 122.944 113.251 122.933C112.36 122.933 111.913 122.434 111.911 121.436V118.415H111.034V117.714H111.911V116.469L112.727 116.205V117.714H114.017V118.415H112.727V121.294C112.705 121.551 112.767 121.807 112.903 122.026C112.976 122.104 113.066 122.164 113.166 122.202C113.267 122.24 113.374 122.254 113.481 122.244C113.674 122.25 113.862 122.191 114.017 122.076V122.776Z" fill="#CA9C42"/>
<path d="M119.176 117.714L116.824 123.653C116.408 124.713 115.82 125.243 115.059 125.243C114.879 125.246 114.7 125.225 114.527 125.178V124.419C114.681 124.477 114.844 124.508 115.009 124.511C115.222 124.502 115.427 124.426 115.593 124.293C115.76 124.16 115.88 123.978 115.936 123.772L116.346 122.803L114.35 117.702H115.258L116.64 121.635C116.64 121.685 116.694 121.815 116.744 122.018H116.774C116.794 121.938 116.824 121.811 116.874 121.635L118.325 117.691L119.176 117.714Z" fill="#CA9C42"/>
</svg>
