<svg width="33" height="33" viewBox="0 0 33 33" fill="none" xmlns="http://www.w3.org/2000/svg">
<g id="Remove">
<circle id="Ellipse 67" cx="16.5" cy="16.5" r="16.5" fill="#EF0101" fill-opacity="0.1"/>
<g id="vuesax/linear/trash">
<g id="trash">
<path id="Vector" d="M24.25 10.4818C21.1975 10.1793 18.1267 10.0234 15.065 10.0234C13.25 10.0234 11.435 10.1151 9.62 10.2984L7.75 10.4818" stroke="#EF0101" stroke-width="1.5" stroke-linecap="round" stroke-linejoin="round"/>
<path id="Vector_2" d="M12.792 9.556L12.9937 8.35516C13.1403 7.48433 13.2503 6.8335 14.7995 6.8335H17.2012C18.7503 6.8335 18.8695 7.521 19.007 8.36433L19.2087 9.556" stroke="#EF0101" stroke-width="1.5" stroke-linecap="round" stroke-linejoin="round"/>
<path id="Vector_3" d="M22.2795 13.3782L21.6837 22.609C21.5829 24.0482 21.5004 25.1665 18.9429 25.1665H13.0579C10.5004 25.1665 10.4179 24.0482 10.317 22.609L9.72119 13.3782" stroke="#EF0101" stroke-width="1.5" stroke-linecap="round" stroke-linejoin="round"/>
<path id="Vector_4" d="M14.4692 20.125H17.5217" stroke="#EF0101" stroke-width="1.5" stroke-linecap="round" stroke-linejoin="round"/>
<path id="Vector_5" d="M13.708 16.4585H18.2913" stroke="#EF0101" stroke-width="1.5" stroke-linecap="round" stroke-linejoin="round"/>
</g>
</g>
</g>
</svg>
