<svg width="32" height="33" viewBox="0 0 32 33" fill="none" xmlns="http://www.w3.org/2000/svg">
<path d="M10.6666 28.5H5.33329C3.86053 28.5 2.66663 27.3061 2.66663 25.8333V7.16667C2.66663 5.69391 3.86053 4.5 5.33329 4.5H14.6666C16.1394 4.5 17.3333 5.69391 17.3333 7.16667V9.83333" stroke="white" stroke-width="1.5" stroke-linecap="round" stroke-linejoin="round"/>
<path d="M10 13.1666C8.89543 13.1666 8 12.2712 8 11.1666C8 10.0621 8.89543 9.16663 10 9.16663" stroke="white" stroke-width="1.5" stroke-linecap="round" stroke-linejoin="round"/>
<path d="M10 9.16663C11.1046 9.16663 12 10.0621 12 11.1666C12 12.2712 11.1046 13.1666 10 13.1666" stroke="white" stroke-width="1.5" stroke-linecap="round" stroke-linejoin="round"/>
<rect x="14.6666" y="13.8334" width="14.6667" height="14.6667" rx="2" stroke="white" stroke-width="1.5" stroke-linecap="round" stroke-linejoin="round"/>
<ellipse cx="22" cy="21.1667" rx="3.33333" ry="3.33333" stroke="white" stroke-width="1.5" stroke-linecap="round" stroke-linejoin="round"/>
<path d="M9.99996 24.5C8.15901 24.5 6.66663 23.0077 6.66663 21.1667C6.66663 19.3258 8.15901 17.8334 9.99996 17.8334" stroke="white" stroke-width="1.5" stroke-linecap="round" stroke-linejoin="round"/>
</svg>
